G75*
G70*
%OFA0B0*%
%FSLAX24Y24*%
%IPPOS*%
%LPD*%
%AMOC8*
5,1,8,0,0,1.08239X$1,22.5*
%
%ADD10R,0.0380X0.0300*%
%ADD11R,0.0300X0.0380*%
%ADD12R,0.0500X0.0470*%
%ADD13R,0.0178X0.0513*%
%ADD14R,0.0507X0.0494*%
%ADD15R,0.0600X0.1100*%
%ADD16C,0.0390*%
%ADD17C,0.0550*%
D10*
X001430Y001314D03*
X001970Y001314D03*
X002510Y001314D03*
X002510Y001694D03*
X001970Y001694D03*
X001430Y001694D03*
X001970Y002214D03*
X001970Y002594D03*
X001970Y003114D03*
X001430Y003114D03*
X001430Y003494D03*
X001970Y003494D03*
X002510Y003494D03*
X002510Y003114D03*
X005030Y003114D03*
X005570Y003114D03*
X005570Y003494D03*
X005030Y003494D03*
X004730Y004314D03*
X004190Y004314D03*
X003350Y004314D03*
X003350Y004694D03*
X004190Y004694D03*
X004730Y004694D03*
X005330Y004694D03*
X005900Y004694D03*
X005900Y004314D03*
X005330Y004314D03*
X006890Y004374D03*
X006890Y004754D03*
X005930Y005274D03*
X005330Y005394D03*
X005930Y005654D03*
X005330Y005774D03*
X004730Y005774D03*
X004190Y005774D03*
X003350Y005774D03*
X003350Y005394D03*
X004190Y005394D03*
X004730Y005394D03*
X005930Y006114D03*
X005930Y006494D03*
X007130Y006194D03*
X007130Y005814D03*
X008870Y006894D03*
X009626Y006875D03*
X009626Y007255D03*
X008870Y007274D03*
X008660Y007734D03*
X008120Y007604D03*
X007580Y007604D03*
X007580Y007224D03*
X008120Y007224D03*
X008660Y008114D03*
X007150Y008784D03*
X006455Y008594D03*
X006455Y008974D03*
X007150Y009164D03*
X005540Y008954D03*
X005540Y008574D03*
X005090Y008784D03*
X004250Y008804D03*
X004250Y008424D03*
X004250Y007934D03*
X004250Y007554D03*
X003770Y006974D03*
X003770Y006594D03*
X002510Y006594D03*
X001970Y006594D03*
X001430Y006594D03*
X001430Y006974D03*
X001970Y006974D03*
X002510Y006974D03*
X001970Y007494D03*
X001970Y007874D03*
X001970Y008394D03*
X001430Y008394D03*
X001430Y008774D03*
X001970Y008774D03*
X002510Y008774D03*
X002510Y008394D03*
X005090Y009164D03*
X005870Y007634D03*
X005870Y007254D03*
X002510Y005774D03*
X001970Y005774D03*
X001970Y005394D03*
X002510Y005394D03*
X002510Y004694D03*
X001970Y004694D03*
X001970Y004314D03*
X002510Y004314D03*
X005270Y002654D03*
X005270Y002274D03*
X004310Y001604D03*
X004310Y001224D03*
X006710Y001324D03*
X006710Y000944D03*
X008205Y001004D03*
X008205Y001384D03*
X009110Y001454D03*
X009110Y001074D03*
X008810Y002334D03*
X008810Y002714D03*
X008240Y003534D03*
X008240Y003914D03*
X011630Y005094D03*
X011630Y005474D03*
X013970Y005294D03*
X014570Y005354D03*
X014570Y004974D03*
X013970Y004914D03*
X015050Y004634D03*
X015050Y004254D03*
X017030Y004734D03*
X017030Y005114D03*
X017030Y005634D03*
X017030Y006014D03*
X013370Y007674D03*
X013370Y008054D03*
X012170Y007274D03*
X012170Y006894D03*
X011780Y007704D03*
X011780Y008084D03*
X017180Y008174D03*
X017180Y007794D03*
X018470Y008034D03*
X018470Y008414D03*
X014240Y003254D03*
X014240Y002874D03*
X013890Y002134D03*
X013340Y002174D03*
X013340Y001794D03*
X013890Y001754D03*
X013880Y001304D03*
X013880Y000924D03*
X014870Y001204D03*
X015330Y001204D03*
X015330Y001584D03*
X014870Y001584D03*
D11*
X006760Y008109D03*
X006380Y008109D03*
D12*
X005330Y007289D03*
X005330Y006699D03*
X008810Y005879D03*
X008810Y005289D03*
X011570Y004499D03*
X011570Y003909D03*
X005270Y001799D03*
X005270Y001209D03*
D13*
X011288Y002153D03*
X011485Y002153D03*
X011682Y002153D03*
X011878Y002153D03*
X012075Y002153D03*
X012272Y002153D03*
D14*
X012728Y001021D03*
X010832Y001021D03*
D15*
X012130Y008834D03*
X012830Y008834D03*
X010020Y008934D03*
X009440Y008934D03*
X007730Y008934D03*
D16*
X008300Y008974D03*
X008780Y008674D03*
X008300Y008554D03*
X007370Y008134D03*
X007040Y007834D03*
X006560Y007744D03*
X005810Y007984D03*
X005360Y007924D03*
X004760Y007984D03*
X004760Y008434D03*
X003765Y008219D03*
X003470Y007924D03*
X003175Y007629D03*
X003765Y007629D03*
X004760Y007534D03*
X004580Y007084D03*
X004610Y006664D03*
X004670Y006184D03*
X005090Y006184D03*
X004250Y006184D03*
X003770Y006184D03*
X003350Y006184D03*
X002930Y006184D03*
X002510Y006184D03*
X002120Y006184D03*
X001730Y006154D03*
X003320Y006634D03*
X006380Y006424D03*
X006320Y005974D03*
X006320Y005494D03*
X005600Y004984D03*
X006410Y004894D03*
X006410Y004354D03*
X006380Y003844D03*
X006320Y003364D03*
X005900Y002794D03*
X004760Y002554D03*
X003765Y002459D03*
X003470Y002164D03*
X003175Y001869D03*
X003765Y001869D03*
X004760Y002044D03*
X004760Y001564D03*
X005840Y001654D03*
X007190Y001594D03*
X007700Y001954D03*
X008150Y001924D03*
X008630Y001864D03*
X007460Y002554D03*
X008240Y003094D03*
X008780Y003154D03*
X009410Y003154D03*
X010010Y003184D03*
X010520Y003154D03*
X010940Y003334D03*
X011420Y002944D03*
X011900Y002944D03*
X012200Y003454D03*
X012170Y003934D03*
X012530Y004054D03*
X012170Y004414D03*
X012170Y004894D03*
X012170Y005374D03*
X012170Y005854D03*
X012170Y006334D03*
X011540Y006634D03*
X011300Y006994D03*
X011750Y007054D03*
X011030Y007654D03*
X010280Y007684D03*
X009830Y007774D03*
X009530Y008044D03*
X010010Y008104D03*
X010670Y008014D03*
X011150Y008074D03*
X011270Y008614D03*
X011570Y008884D03*
X013460Y008914D03*
X014930Y008404D03*
X014930Y007864D03*
X015170Y007414D03*
X013880Y007684D03*
X013670Y006994D03*
X013310Y006784D03*
X014840Y006424D03*
X015200Y006424D03*
X015800Y006424D03*
X016280Y006424D03*
X016760Y006424D03*
X017420Y006274D03*
X017540Y005764D03*
X017540Y005284D03*
X017540Y004804D03*
X017540Y004324D03*
X017120Y003814D03*
X018950Y003694D03*
X019400Y003964D03*
X018950Y004234D03*
X019400Y004504D03*
X018950Y004774D03*
X019400Y005044D03*
X018950Y005314D03*
X019400Y005584D03*
X018950Y005854D03*
X019400Y006124D03*
X018950Y006394D03*
X019400Y006664D03*
X018950Y006934D03*
X019400Y007204D03*
X018950Y007474D03*
X019400Y007744D03*
X018950Y008014D03*
X019400Y008284D03*
X018050Y008794D03*
X016760Y008854D03*
X016790Y007924D03*
X016850Y007204D03*
X014570Y005794D03*
X014000Y004444D03*
X013460Y004444D03*
X014300Y003724D03*
X014690Y003514D03*
X014960Y003814D03*
X013790Y003664D03*
X013610Y002584D03*
X014390Y002254D03*
X014810Y002314D03*
X015290Y002314D03*
X014390Y001714D03*
X014390Y001234D03*
X014810Y000784D03*
X015260Y000784D03*
X012830Y001834D03*
X012500Y001594D03*
X011900Y001624D03*
X011450Y001624D03*
X010310Y001864D03*
X012170Y001054D03*
X012830Y002284D03*
X009920Y003694D03*
X009380Y003694D03*
X008810Y003694D03*
X007670Y003544D03*
X007640Y004114D03*
X008180Y004354D03*
X007640Y004594D03*
X007640Y005194D03*
X008210Y005194D03*
X009230Y005644D03*
X009740Y005884D03*
X009260Y006064D03*
X008960Y006454D03*
X008210Y006454D03*
X007640Y006334D03*
X007460Y006694D03*
X006410Y007204D03*
X009170Y007654D03*
X010040Y006484D03*
X010940Y006214D03*
X010190Y006064D03*
X010940Y005734D03*
X010940Y005254D03*
X010940Y004774D03*
X010940Y004294D03*
X010940Y003814D03*
X008390Y005734D03*
X008000Y005764D03*
X007640Y005734D03*
X005030Y003964D03*
X004610Y003904D03*
X004190Y003904D03*
X003770Y003904D03*
X003350Y003904D03*
X002930Y003904D03*
X002510Y003904D03*
X003170Y003424D03*
X003710Y003424D03*
X004100Y003514D03*
X004250Y003124D03*
X003175Y002459D03*
X004700Y000964D03*
X003980Y000874D03*
X003500Y000874D03*
X008660Y000994D03*
X003175Y008219D03*
X004670Y009064D03*
X004040Y009214D03*
X003590Y009214D03*
X003140Y009214D03*
X005930Y009304D03*
X006680Y009304D03*
X006050Y008734D03*
D17*
X000770Y001144D03*
X000770Y001804D03*
X000770Y002524D03*
X000770Y003184D03*
X000770Y004684D03*
X000770Y005404D03*
X000770Y006904D03*
X000770Y007564D03*
X000770Y008284D03*
X000770Y008944D03*
M02*
