%
M48
M72
T01C0.0150
T02C0.0300
%
T01
X3500Y874
X3980Y874
X4700Y964
X4760Y1564
X3765Y1869
X3470Y2164
X3175Y1869
X3175Y2459
X3765Y2459
X4760Y2554
X4760Y2044
X5840Y1654
X7190Y1594
X7700Y1954
X8150Y1924
X8630Y1864
X7460Y2554
X8240Y3094
X8780Y3154
X9410Y3154
X10010Y3184
X10520Y3154
X10940Y3334
X11420Y2944
X11900Y2944
X12200Y3454
X12170Y3934
X12530Y4054
X12170Y4414
X12170Y4894
X12170Y5374
X12170Y5854
X12170Y6334
X11540Y6634
X11300Y6994
X11750Y7054
X11030Y7654
X10280Y7684
X9830Y7774
X9530Y8044
X10010Y8104
X10670Y8014
X11150Y8074
X11270Y8614
X11570Y8884
X13460Y8914
X14930Y8404
X14930Y7864
X15170Y7414
X13880Y7684
X13670Y6994
X13310Y6784
X14840Y6424
X15200Y6424
X15800Y6424
X16280Y6424
X16760Y6424
X17420Y6274
X17540Y5764
X17540Y5284
X17540Y4804
X17540Y4324
X17120Y3814
X18950Y3694
X19400Y3964
X18950Y4234
X19400Y4504
X18950Y4774
X19400Y5044
X18950Y5314
X19400Y5584
X18950Y5854
X19400Y6124
X18950Y6394
X19400Y6664
X18950Y6934
X19400Y7204
X18950Y7474
X19400Y7744
X18950Y8014
X19400Y8284
X18050Y8794
X16760Y8854
X16790Y7924
X16850Y7204
X14570Y5794
X14000Y4444
X13460Y4444
X14300Y3724
X14690Y3514
X14960Y3814
X13790Y3664
X13610Y2584
X14390Y2254
X14810Y2314
X15290Y2314
X14390Y1714
X14390Y1234
X14810Y784
X15260Y784
X12830Y1834
X12500Y1594
X11900Y1624
X11450Y1624
X10310Y1864
X12170Y1054
X12830Y2284
X9920Y3694
X9380Y3694
X8810Y3694
X7670Y3544
X7640Y4114
X8180Y4354
X7640Y4594
X7640Y5194
X8210Y5194
X9230Y5644
X9740Y5884
X9260Y6064
X8960Y6454
X8210Y6454
X7640Y6334
X7460Y6694
X6380Y6424
X6320Y5974
X6320Y5494
X5600Y4984
X6410Y4894
X6410Y4354
X6380Y3844
X6320Y3364
X5900Y2794
X4250Y3124
X3710Y3424
X4100Y3514
X4190Y3904
X3770Y3904
X3350Y3904
X2930Y3904
X2510Y3904
X3170Y3424
X4610Y3904
X5030Y3964
X7640Y5734
X8000Y5764
X8390Y5734
X10040Y6484
X10940Y6214
X10190Y6064
X10940Y5734
X10940Y5254
X10940Y4774
X10940Y4294
X10940Y3814
X5090Y6184
X4670Y6184
X4250Y6184
X3770Y6184
X3350Y6184
X2930Y6184
X2510Y6184
X2120Y6184
X1730Y6154
X3320Y6634
X4610Y6664
X4580Y7084
X4760Y7534
X5360Y7924
X5810Y7984
X6560Y7744
X7040Y7834
X7370Y8134
X8300Y8554
X8780Y8674
X8300Y8974
X6680Y9304
X5930Y9304
X4670Y9064
X4040Y9214
X3590Y9214
X3140Y9214
X4760Y8434
X4760Y7984
X3765Y8219
X3470Y7924
X3175Y7629
X3765Y7629
X3175Y8219
X6050Y8734
X9170Y7654
X6410Y7204
X8660Y994
T02
X770Y1144
X770Y1804
X770Y2524
X770Y3184
X770Y4684
X770Y5404
X770Y6904
X770Y7564
X770Y8284
X770Y8944
M30
