G75*
G70*
%OFA0B0*%
%FSLAX24Y24*%
%IPPOS*%
%LPD*%
%AMOC8*
5,1,8,0,0,1.08239X$1,22.5*
%
%ADD10R,0.0380X0.0300*%
%ADD11R,0.0434X0.0178*%
%ADD12R,0.0691X0.0553*%
%ADD13R,0.0415X0.0415*%
%ADD14C,0.0158*%
%ADD15C,0.0180*%
%ADD16R,0.0207X0.0344*%
%ADD17R,0.0139X0.0139*%
%ADD18C,0.0004*%
%ADD19R,0.0533X0.0336*%
%ADD20R,0.1439X0.1439*%
%ADD21C,0.0170*%
%ADD22R,0.0178X0.0680*%
%ADD23R,0.0680X0.0178*%
%ADD24R,0.0927X0.0927*%
%ADD25C,0.0207*%
%ADD26R,0.0178X0.0513*%
%ADD27R,0.0507X0.0494*%
%ADD28C,0.0178*%
%ADD29R,0.0513X0.1320*%
%ADD30R,0.0454X0.0533*%
%ADD31R,0.1100X0.0600*%
%ADD32R,0.0546X0.0218*%
%ADD33R,0.0653X0.0218*%
%ADD34R,0.0600X0.1100*%
%ADD35C,0.0390*%
%ADD36C,0.0550*%
D10*
X015410Y002814D03*
X015410Y003194D03*
X016610Y003194D03*
X016610Y002814D03*
D11*
X018272Y003740D03*
X018272Y003937D03*
X018272Y004134D03*
X018272Y004331D03*
X018272Y004528D03*
X018272Y004725D03*
X018272Y004921D03*
X018272Y005118D03*
X018272Y005315D03*
X018272Y005512D03*
X018272Y005709D03*
X018272Y005906D03*
X018272Y006103D03*
X018272Y006299D03*
X018272Y006496D03*
X018272Y006693D03*
X018272Y006890D03*
X018272Y007087D03*
X018272Y007284D03*
X018272Y007481D03*
X018272Y007677D03*
X018272Y007874D03*
X018272Y008071D03*
X018272Y008268D03*
D12*
X019325Y008790D03*
X019325Y003219D03*
D13*
X015380Y001829D03*
X014870Y001829D03*
X013895Y001574D03*
X013305Y001574D03*
X013305Y001054D03*
X013895Y001054D03*
X014870Y001239D03*
X015380Y001239D03*
X013895Y002104D03*
X013305Y002104D03*
D14*
X004159Y004306D02*
X004159Y004562D01*
X003962Y004562D02*
X003962Y004306D01*
X003765Y004306D02*
X003765Y004562D01*
X003568Y004562D02*
X003568Y004306D01*
X003372Y004306D02*
X003372Y004562D01*
X003175Y004562D02*
X003175Y004306D01*
X002978Y004306D02*
X002978Y004562D01*
X002781Y004562D02*
X002781Y004306D01*
X002781Y005526D02*
X002781Y005782D01*
X002978Y005782D02*
X002978Y005526D01*
X003175Y005526D02*
X003175Y005782D01*
X003372Y005782D02*
X003372Y005526D01*
X003568Y005526D02*
X003568Y005782D01*
X003765Y005782D02*
X003765Y005526D01*
X003962Y005526D02*
X003962Y005782D01*
X004159Y005782D02*
X004159Y005526D01*
X006393Y008092D02*
X006393Y008308D01*
X006590Y008308D02*
X006590Y008092D01*
X006787Y008092D02*
X006787Y008308D01*
X005617Y008242D02*
X005617Y008458D01*
X005420Y008458D02*
X005420Y008242D01*
X005223Y008242D02*
X005223Y008458D01*
X006393Y008801D02*
X006393Y009017D01*
X006590Y009017D02*
X006590Y008801D01*
X006787Y008801D02*
X006787Y009017D01*
X005617Y008951D02*
X005617Y009167D01*
X005420Y009167D02*
X005420Y008951D01*
X005223Y008951D02*
X005223Y009167D01*
D15*
X004296Y005329D02*
X002644Y005329D01*
X004296Y005329D02*
X004296Y004759D01*
X002644Y004759D01*
X002644Y005329D01*
X002644Y004938D02*
X004296Y004938D01*
X004296Y005117D02*
X002644Y005117D01*
X002644Y005296D02*
X004296Y005296D01*
D16*
X007882Y001029D03*
X008118Y001029D03*
D17*
X008000Y001423D03*
D18*
X008238Y001513D02*
X008236Y001521D01*
X008236Y001551D01*
X008234Y001563D01*
X008229Y001574D01*
X008220Y001582D01*
X008209Y001588D01*
X008197Y001590D01*
X007793Y001590D01*
X007781Y001588D01*
X007770Y001582D01*
X007761Y001574D01*
X007756Y001563D01*
X007754Y001551D01*
X007754Y001521D01*
X007752Y001513D01*
X008238Y001513D01*
X008242Y001507D01*
X008248Y001503D01*
X007742Y001503D01*
X007734Y001501D01*
X007518Y001501D01*
X007518Y001304D01*
X007734Y001304D01*
X007742Y001303D01*
X007748Y001299D01*
X007752Y001292D01*
X007754Y001285D01*
X007754Y001255D01*
X007756Y001243D01*
X007761Y001232D01*
X007770Y001223D01*
X007781Y001218D01*
X007793Y001216D01*
X008207Y001216D01*
X008219Y001218D01*
X008230Y001223D01*
X008239Y001232D01*
X008244Y001243D01*
X008246Y001255D01*
X008246Y001285D01*
X008248Y001292D01*
X008252Y001299D01*
X008258Y001303D01*
X008266Y001304D01*
X008482Y001304D01*
X008482Y001501D01*
X008256Y001501D01*
X008248Y001503D01*
X008245Y001505D02*
X007746Y001505D01*
X007748Y001507D02*
X007742Y001503D01*
X007748Y001507D02*
X007752Y001513D01*
X007753Y001515D02*
X008237Y001515D01*
X008237Y001518D02*
X007753Y001518D01*
X007754Y001520D02*
X008236Y001520D01*
X008236Y001522D02*
X007754Y001522D01*
X007754Y001525D02*
X008236Y001525D01*
X008236Y001527D02*
X007754Y001527D01*
X007754Y001530D02*
X008236Y001530D01*
X008236Y001532D02*
X007754Y001532D01*
X007754Y001535D02*
X008236Y001535D01*
X008236Y001537D02*
X007754Y001537D01*
X007754Y001540D02*
X008236Y001540D01*
X008236Y001542D02*
X007754Y001542D01*
X007754Y001544D02*
X008236Y001544D01*
X008236Y001547D02*
X007754Y001547D01*
X007754Y001549D02*
X008236Y001549D01*
X008236Y001552D02*
X007754Y001552D01*
X007755Y001554D02*
X008236Y001554D01*
X008235Y001557D02*
X007755Y001557D01*
X007755Y001559D02*
X008235Y001559D01*
X008234Y001561D02*
X007756Y001561D01*
X007756Y001564D02*
X008234Y001564D01*
X008232Y001566D02*
X007758Y001566D01*
X007759Y001569D02*
X008231Y001569D01*
X008230Y001571D02*
X007760Y001571D01*
X007761Y001574D02*
X008229Y001574D01*
X008226Y001576D02*
X007764Y001576D01*
X007766Y001579D02*
X008224Y001579D01*
X008221Y001581D02*
X007769Y001581D01*
X007772Y001583D02*
X008218Y001583D01*
X008213Y001586D02*
X007777Y001586D01*
X007783Y001588D02*
X008207Y001588D01*
X008240Y001510D02*
X007750Y001510D01*
X007749Y001508D02*
X008242Y001508D01*
X008482Y001501D02*
X007518Y001501D01*
X007518Y001498D02*
X008482Y001498D01*
X008482Y001496D02*
X007518Y001496D01*
X007518Y001493D02*
X008482Y001493D01*
X008482Y001491D02*
X007518Y001491D01*
X007518Y001488D02*
X008482Y001488D01*
X008482Y001486D02*
X007518Y001486D01*
X007518Y001483D02*
X008482Y001483D01*
X008482Y001481D02*
X007518Y001481D01*
X007518Y001479D02*
X008482Y001479D01*
X008482Y001476D02*
X007518Y001476D01*
X007518Y001474D02*
X008482Y001474D01*
X008482Y001471D02*
X007518Y001471D01*
X007518Y001469D02*
X008482Y001469D01*
X008482Y001466D02*
X007518Y001466D01*
X007518Y001464D02*
X008482Y001464D01*
X008482Y001462D02*
X007518Y001462D01*
X007518Y001459D02*
X008482Y001459D01*
X008482Y001457D02*
X007518Y001457D01*
X007518Y001454D02*
X008482Y001454D01*
X008482Y001452D02*
X007518Y001452D01*
X007518Y001449D02*
X008482Y001449D01*
X008482Y001447D02*
X007518Y001447D01*
X007518Y001444D02*
X008482Y001444D01*
X008482Y001442D02*
X007518Y001442D01*
X007518Y001440D02*
X008482Y001440D01*
X008482Y001437D02*
X007518Y001437D01*
X007518Y001435D02*
X008482Y001435D01*
X008482Y001432D02*
X007518Y001432D01*
X007518Y001430D02*
X008482Y001430D01*
X008482Y001427D02*
X007518Y001427D01*
X007518Y001425D02*
X008482Y001425D01*
X008482Y001423D02*
X007518Y001423D01*
X007518Y001420D02*
X008482Y001420D01*
X008482Y001418D02*
X007518Y001418D01*
X007518Y001415D02*
X008482Y001415D01*
X008482Y001413D02*
X007518Y001413D01*
X007518Y001410D02*
X008482Y001410D01*
X008482Y001408D02*
X007518Y001408D01*
X007518Y001405D02*
X008482Y001405D01*
X008482Y001403D02*
X007518Y001403D01*
X007518Y001401D02*
X008482Y001401D01*
X008482Y001398D02*
X007518Y001398D01*
X007518Y001396D02*
X008482Y001396D01*
X008482Y001393D02*
X007518Y001393D01*
X007518Y001391D02*
X008482Y001391D01*
X008482Y001388D02*
X007518Y001388D01*
X007518Y001386D02*
X008482Y001386D01*
X008482Y001384D02*
X007518Y001384D01*
X007518Y001381D02*
X008482Y001381D01*
X008482Y001379D02*
X007518Y001379D01*
X007518Y001376D02*
X008482Y001376D01*
X008482Y001374D02*
X007518Y001374D01*
X007518Y001371D02*
X008482Y001371D01*
X008482Y001369D02*
X007518Y001369D01*
X007518Y001366D02*
X008482Y001366D01*
X008482Y001364D02*
X007518Y001364D01*
X007518Y001362D02*
X008482Y001362D01*
X008482Y001359D02*
X007518Y001359D01*
X007518Y001357D02*
X008482Y001357D01*
X008482Y001354D02*
X007518Y001354D01*
X007518Y001352D02*
X008482Y001352D01*
X008482Y001349D02*
X007518Y001349D01*
X007518Y001347D02*
X008482Y001347D01*
X008482Y001345D02*
X007518Y001345D01*
X007518Y001342D02*
X008482Y001342D01*
X008482Y001340D02*
X007518Y001340D01*
X007518Y001337D02*
X008482Y001337D01*
X008482Y001335D02*
X007518Y001335D01*
X007518Y001332D02*
X008482Y001332D01*
X008482Y001330D02*
X007518Y001330D01*
X007518Y001327D02*
X008482Y001327D01*
X008482Y001325D02*
X007518Y001325D01*
X007518Y001323D02*
X008482Y001323D01*
X008482Y001320D02*
X007518Y001320D01*
X007518Y001318D02*
X008482Y001318D01*
X008482Y001315D02*
X007518Y001315D01*
X007518Y001313D02*
X008482Y001313D01*
X008482Y001310D02*
X007518Y001310D01*
X007518Y001308D02*
X008482Y001308D01*
X008482Y001306D02*
X007518Y001306D01*
X007741Y001303D02*
X008259Y001303D01*
X008255Y001301D02*
X007745Y001301D01*
X007749Y001298D02*
X008251Y001298D01*
X008250Y001296D02*
X007750Y001296D01*
X007752Y001293D02*
X008248Y001293D01*
X008247Y001291D02*
X007753Y001291D01*
X007753Y001288D02*
X008247Y001288D01*
X008246Y001286D02*
X007754Y001286D01*
X007754Y001284D02*
X008246Y001284D01*
X008246Y001281D02*
X007754Y001281D01*
X007754Y001279D02*
X008246Y001279D01*
X008246Y001276D02*
X007754Y001276D01*
X007754Y001274D02*
X008246Y001274D01*
X008246Y001271D02*
X007754Y001271D01*
X007754Y001269D02*
X008246Y001269D01*
X008246Y001267D02*
X007754Y001267D01*
X007754Y001264D02*
X008246Y001264D01*
X008246Y001262D02*
X007754Y001262D01*
X007754Y001259D02*
X008246Y001259D01*
X008246Y001257D02*
X007754Y001257D01*
X007754Y001254D02*
X008246Y001254D01*
X008246Y001252D02*
X007754Y001252D01*
X007755Y001249D02*
X008245Y001249D01*
X008245Y001247D02*
X007755Y001247D01*
X007756Y001245D02*
X008244Y001245D01*
X008244Y001242D02*
X007756Y001242D01*
X007758Y001240D02*
X008242Y001240D01*
X008241Y001237D02*
X007759Y001237D01*
X007760Y001235D02*
X008240Y001235D01*
X008239Y001232D02*
X007761Y001232D01*
X007764Y001230D02*
X008236Y001230D01*
X008234Y001228D02*
X007766Y001228D01*
X007768Y001225D02*
X008232Y001225D01*
X008228Y001223D02*
X007772Y001223D01*
X007776Y001220D02*
X008224Y001220D01*
X008219Y001218D02*
X007781Y001218D01*
D19*
X006590Y008554D03*
X005420Y008704D03*
D20*
X016010Y004864D03*
D21*
X016852Y004766D02*
X017136Y004766D01*
X017136Y004963D02*
X016852Y004963D01*
X016852Y005159D02*
X017136Y005159D01*
X017136Y005356D02*
X016852Y005356D01*
X016852Y005553D02*
X017136Y005553D01*
X016699Y005706D02*
X016699Y005990D01*
X016502Y005990D02*
X016502Y005706D01*
X016305Y005706D02*
X016305Y005990D01*
X016108Y005990D02*
X016108Y005706D01*
X015912Y005706D02*
X015912Y005990D01*
X015715Y005990D02*
X015715Y005706D01*
X015518Y005706D02*
X015518Y005990D01*
X015321Y005990D02*
X015321Y005706D01*
X015168Y005553D02*
X014884Y005553D01*
X014884Y005356D02*
X015168Y005356D01*
X015168Y005159D02*
X014884Y005159D01*
X014884Y004963D02*
X015168Y004963D01*
X015168Y004766D02*
X014884Y004766D01*
X014884Y004569D02*
X015168Y004569D01*
X015168Y004372D02*
X014884Y004372D01*
X014884Y004175D02*
X015168Y004175D01*
X015321Y004022D02*
X015321Y003738D01*
X015518Y003738D02*
X015518Y004022D01*
X015715Y004022D02*
X015715Y003738D01*
X015912Y003738D02*
X015912Y004022D01*
X016108Y004022D02*
X016108Y003738D01*
X016305Y003738D02*
X016305Y004022D01*
X016502Y004022D02*
X016502Y003738D01*
X016699Y003738D02*
X016699Y004022D01*
X016852Y004175D02*
X017136Y004175D01*
X017136Y004372D02*
X016852Y004372D01*
X016852Y004569D02*
X017136Y004569D01*
D22*
X010766Y002545D03*
X010570Y002545D03*
X010373Y002545D03*
X010176Y002545D03*
X009979Y002545D03*
X009782Y002545D03*
X009585Y002545D03*
X009388Y002545D03*
X009192Y002545D03*
X008995Y002545D03*
X008798Y002545D03*
X008601Y002545D03*
X008404Y002545D03*
X008207Y002545D03*
X008010Y002545D03*
X007814Y002545D03*
X007814Y007063D03*
X008010Y007063D03*
X008207Y007063D03*
X008404Y007063D03*
X008601Y007063D03*
X008798Y007063D03*
X008995Y007063D03*
X009192Y007063D03*
X009388Y007063D03*
X009585Y007063D03*
X009782Y007063D03*
X009979Y007063D03*
X010176Y007063D03*
X010373Y007063D03*
X010570Y007063D03*
X010766Y007063D03*
D23*
X011549Y006281D03*
X011549Y006084D03*
X011549Y005887D03*
X011549Y005690D03*
X011549Y005493D03*
X011549Y005296D03*
X011549Y005099D03*
X011549Y004903D03*
X011549Y004706D03*
X011549Y004509D03*
X011549Y004312D03*
X011549Y004115D03*
X011549Y003918D03*
X011549Y003721D03*
X011549Y003525D03*
X011549Y003328D03*
X007031Y003328D03*
X007031Y003525D03*
X007031Y003721D03*
X007031Y003918D03*
X007031Y004115D03*
X007031Y004312D03*
X007031Y004509D03*
X007031Y004706D03*
X007031Y004903D03*
X007031Y005099D03*
X007031Y005296D03*
X007031Y005493D03*
X007031Y005690D03*
X007031Y005887D03*
X007031Y006084D03*
X007031Y006281D03*
D24*
X003470Y007924D03*
X003470Y002164D03*
D25*
X002850Y002036D02*
X002554Y002036D01*
X002554Y002036D01*
X002850Y002036D01*
X002850Y002036D01*
X002850Y001780D02*
X002554Y001780D01*
X002554Y001780D01*
X002850Y001780D01*
X002850Y001780D01*
X003086Y001544D02*
X003086Y001248D01*
X003086Y001248D01*
X003086Y001544D01*
X003086Y001544D01*
X003086Y001454D02*
X003086Y001454D01*
X003342Y001544D02*
X003342Y001248D01*
X003342Y001248D01*
X003342Y001544D01*
X003342Y001544D01*
X003342Y001454D02*
X003342Y001454D01*
X003598Y001544D02*
X003598Y001248D01*
X003598Y001248D01*
X003598Y001544D01*
X003598Y001544D01*
X003598Y001454D02*
X003598Y001454D01*
X003854Y001544D02*
X003854Y001248D01*
X003854Y001248D01*
X003854Y001544D01*
X003854Y001544D01*
X003854Y001454D02*
X003854Y001454D01*
X004090Y001780D02*
X004386Y001780D01*
X004386Y001780D01*
X004090Y001780D01*
X004090Y001780D01*
X004090Y002036D02*
X004386Y002036D01*
X004386Y002036D01*
X004090Y002036D01*
X004090Y002036D01*
X004090Y002292D02*
X004386Y002292D01*
X004386Y002292D01*
X004090Y002292D01*
X004090Y002292D01*
X004090Y002548D02*
X004386Y002548D01*
X004386Y002548D01*
X004090Y002548D01*
X004090Y002548D01*
X003854Y002784D02*
X003854Y003080D01*
X003854Y002784D02*
X003854Y002784D01*
X003854Y003080D01*
X003854Y003080D01*
X003854Y002990D02*
X003854Y002990D01*
X003598Y003080D02*
X003598Y002784D01*
X003598Y002784D01*
X003598Y003080D01*
X003598Y003080D01*
X003598Y002990D02*
X003598Y002990D01*
X003342Y003080D02*
X003342Y002784D01*
X003342Y002784D01*
X003342Y003080D01*
X003342Y003080D01*
X003342Y002990D02*
X003342Y002990D01*
X003086Y003080D02*
X003086Y002784D01*
X003086Y002784D01*
X003086Y003080D01*
X003086Y003080D01*
X003086Y002990D02*
X003086Y002990D01*
X002850Y002548D02*
X002554Y002548D01*
X002554Y002548D01*
X002850Y002548D01*
X002850Y002548D01*
X002850Y002292D02*
X002554Y002292D01*
X002554Y002292D01*
X002850Y002292D01*
X002850Y002292D01*
X003086Y007008D02*
X003086Y007304D01*
X003086Y007008D02*
X003086Y007008D01*
X003086Y007304D01*
X003086Y007304D01*
X003086Y007214D02*
X003086Y007214D01*
X003342Y007304D02*
X003342Y007008D01*
X003342Y007008D01*
X003342Y007304D01*
X003342Y007304D01*
X003342Y007214D02*
X003342Y007214D01*
X003598Y007304D02*
X003598Y007008D01*
X003598Y007008D01*
X003598Y007304D01*
X003598Y007304D01*
X003598Y007214D02*
X003598Y007214D01*
X003854Y007304D02*
X003854Y007008D01*
X003854Y007008D01*
X003854Y007304D01*
X003854Y007304D01*
X003854Y007214D02*
X003854Y007214D01*
X004090Y007540D02*
X004386Y007540D01*
X004386Y007540D01*
X004090Y007540D01*
X004090Y007540D01*
X004090Y007796D02*
X004386Y007796D01*
X004386Y007796D01*
X004090Y007796D01*
X004090Y007796D01*
X004090Y008052D02*
X004386Y008052D01*
X004386Y008052D01*
X004090Y008052D01*
X004090Y008052D01*
X004090Y008308D02*
X004386Y008308D01*
X004386Y008308D01*
X004090Y008308D01*
X004090Y008308D01*
X003854Y008544D02*
X003854Y008840D01*
X003854Y008544D02*
X003854Y008544D01*
X003854Y008840D01*
X003854Y008840D01*
X003854Y008750D02*
X003854Y008750D01*
X003598Y008840D02*
X003598Y008544D01*
X003598Y008544D01*
X003598Y008840D01*
X003598Y008840D01*
X003598Y008750D02*
X003598Y008750D01*
X003342Y008840D02*
X003342Y008544D01*
X003342Y008544D01*
X003342Y008840D01*
X003342Y008840D01*
X003342Y008750D02*
X003342Y008750D01*
X003086Y008840D02*
X003086Y008544D01*
X003086Y008544D01*
X003086Y008840D01*
X003086Y008840D01*
X003086Y008750D02*
X003086Y008750D01*
X002850Y008308D02*
X002554Y008308D01*
X002554Y008308D01*
X002850Y008308D01*
X002850Y008308D01*
X002850Y008052D02*
X002554Y008052D01*
X002554Y008052D01*
X002850Y008052D01*
X002850Y008052D01*
X002850Y007796D02*
X002554Y007796D01*
X002554Y007796D01*
X002850Y007796D01*
X002850Y007796D01*
X002850Y007540D02*
X002554Y007540D01*
X002554Y007540D01*
X002850Y007540D01*
X002850Y007540D01*
D26*
X007808Y007935D03*
X008005Y007935D03*
X008202Y007935D03*
X008398Y007935D03*
X008595Y007935D03*
X008792Y007935D03*
X006722Y002183D03*
X006525Y002183D03*
X006328Y002183D03*
X006132Y002183D03*
X005935Y002183D03*
X005738Y002183D03*
D27*
X005282Y001051D03*
X007178Y001051D03*
X007352Y009067D03*
X009248Y009067D03*
D28*
X011665Y008476D02*
X011901Y008476D01*
X011901Y008279D02*
X011665Y008279D01*
X011665Y008083D02*
X011901Y008083D01*
X011901Y007886D02*
X011665Y007886D01*
X011665Y007689D02*
X011901Y007689D01*
X011901Y007492D02*
X011665Y007492D01*
X012098Y007295D02*
X012098Y007059D01*
X012295Y007059D02*
X012295Y007295D01*
X012492Y007295D02*
X012492Y007059D01*
X012688Y007059D02*
X012688Y007295D01*
X012885Y007295D02*
X012885Y007059D01*
X013082Y007059D02*
X013082Y007295D01*
X013279Y007492D02*
X013515Y007492D01*
X013515Y007689D02*
X013279Y007689D01*
X013279Y007886D02*
X013515Y007886D01*
X013515Y008083D02*
X013279Y008083D01*
X013279Y008279D02*
X013515Y008279D01*
X013515Y008476D02*
X013279Y008476D01*
X013082Y008673D02*
X013082Y008909D01*
X012885Y008909D02*
X012885Y008673D01*
X012688Y008673D02*
X012688Y008909D01*
X012492Y008909D02*
X012492Y008673D01*
X012295Y008673D02*
X012295Y008909D01*
X012098Y008909D02*
X012098Y008673D01*
X015793Y003300D02*
X015793Y003162D01*
X016010Y003162D02*
X016010Y003300D01*
X016227Y003300D02*
X016227Y003162D01*
X016227Y002847D02*
X016227Y002709D01*
X016010Y002709D02*
X016010Y002847D01*
X015793Y002847D02*
X015793Y002709D01*
D29*
X016206Y001444D03*
X019414Y001444D03*
D30*
X014006Y004990D03*
X013454Y004990D03*
X013454Y005699D03*
X014006Y005699D03*
X009686Y001799D03*
X009134Y001799D03*
X009134Y001090D03*
X009686Y001090D03*
D31*
X001670Y001144D03*
X001670Y001804D03*
X001670Y002524D03*
X001670Y003184D03*
X001670Y004684D03*
X001670Y005404D03*
X001670Y006904D03*
X001670Y007564D03*
X001670Y008284D03*
X001670Y008944D03*
D32*
X014385Y008414D03*
X014385Y007914D03*
X014385Y007414D03*
X017455Y007414D03*
X017455Y007914D03*
X017455Y008414D03*
X017455Y008914D03*
D33*
X014438Y008914D03*
D34*
X010520Y008944D03*
X009920Y008944D03*
X005750Y005824D03*
X005750Y004144D03*
D35*
X006410Y004354D03*
X006380Y003844D03*
X006320Y003364D03*
X005900Y002794D03*
X004760Y002554D03*
X003765Y002459D03*
X003470Y002164D03*
X003175Y001869D03*
X003765Y001869D03*
X004760Y002044D03*
X004760Y001564D03*
X005840Y001654D03*
X007190Y001594D03*
X007700Y001954D03*
X008150Y001924D03*
X008630Y001864D03*
X007460Y002554D03*
X008240Y003094D03*
X008780Y003154D03*
X009410Y003154D03*
X010010Y003184D03*
X010520Y003154D03*
X010940Y003334D03*
X011420Y002944D03*
X011900Y002944D03*
X012200Y003454D03*
X012170Y003934D03*
X012530Y004054D03*
X012170Y004414D03*
X012170Y004894D03*
X012170Y005374D03*
X012170Y005854D03*
X012170Y006334D03*
X011540Y006634D03*
X011300Y006994D03*
X011750Y007054D03*
X011030Y007654D03*
X010280Y007684D03*
X009830Y007774D03*
X009530Y008044D03*
X010010Y008104D03*
X010670Y008014D03*
X011150Y008074D03*
X011270Y008614D03*
X011570Y008884D03*
X013460Y008914D03*
X014930Y008404D03*
X014930Y007864D03*
X015170Y007414D03*
X013880Y007684D03*
X013670Y006994D03*
X013310Y006784D03*
X014840Y006424D03*
X015200Y006424D03*
X015800Y006424D03*
X016280Y006424D03*
X016760Y006424D03*
X017420Y006274D03*
X017540Y005764D03*
X017540Y005284D03*
X017540Y004804D03*
X017540Y004324D03*
X017120Y003814D03*
X018950Y003694D03*
X019400Y003964D03*
X018950Y004234D03*
X019400Y004504D03*
X018950Y004774D03*
X019400Y005044D03*
X018950Y005314D03*
X019400Y005584D03*
X018950Y005854D03*
X019400Y006124D03*
X018950Y006394D03*
X019400Y006664D03*
X018950Y006934D03*
X019400Y007204D03*
X018950Y007474D03*
X019400Y007744D03*
X018950Y008014D03*
X019400Y008284D03*
X018050Y008794D03*
X016760Y008854D03*
X016790Y007924D03*
X016850Y007204D03*
X014570Y005794D03*
X014000Y004444D03*
X013460Y004444D03*
X014300Y003724D03*
X014690Y003514D03*
X014960Y003814D03*
X013790Y003664D03*
X013610Y002584D03*
X014390Y002254D03*
X014810Y002314D03*
X015290Y002314D03*
X014390Y001714D03*
X014390Y001234D03*
X014810Y000784D03*
X015260Y000784D03*
X012830Y001834D03*
X012500Y001594D03*
X011900Y001624D03*
X011450Y001624D03*
X010310Y001864D03*
X012170Y001054D03*
X012830Y002284D03*
X009920Y003694D03*
X009380Y003694D03*
X008810Y003694D03*
X007670Y003544D03*
X007640Y004114D03*
X008180Y004354D03*
X007640Y004594D03*
X007640Y005194D03*
X008210Y005194D03*
X009230Y005644D03*
X009740Y005884D03*
X009260Y006064D03*
X008960Y006454D03*
X008210Y006454D03*
X007640Y006334D03*
X007460Y006694D03*
X006380Y006424D03*
X006320Y005974D03*
X006320Y005494D03*
X005600Y004984D03*
X006410Y004894D03*
X007640Y005734D03*
X008000Y005764D03*
X008390Y005734D03*
X010040Y006484D03*
X010940Y006214D03*
X010190Y006064D03*
X010940Y005734D03*
X010940Y005254D03*
X010940Y004774D03*
X010940Y004294D03*
X010940Y003814D03*
X005030Y003964D03*
X004610Y003904D03*
X004190Y003904D03*
X003770Y003904D03*
X003350Y003904D03*
X002930Y003904D03*
X002510Y003904D03*
X003170Y003424D03*
X003710Y003424D03*
X004100Y003514D03*
X004250Y003124D03*
X003175Y002459D03*
X004700Y000964D03*
X003980Y000874D03*
X003500Y000874D03*
X008660Y000994D03*
X001730Y006154D03*
X002120Y006184D03*
X002510Y006184D03*
X002930Y006184D03*
X003350Y006184D03*
X003770Y006184D03*
X004250Y006184D03*
X004670Y006184D03*
X005090Y006184D03*
X004610Y006664D03*
X004580Y007084D03*
X004760Y007534D03*
X005360Y007924D03*
X005810Y007984D03*
X006560Y007744D03*
X007040Y007834D03*
X007370Y008134D03*
X008300Y008554D03*
X008780Y008674D03*
X008300Y008974D03*
X006680Y009304D03*
X005930Y009304D03*
X004670Y009064D03*
X004040Y009214D03*
X003590Y009214D03*
X003140Y009214D03*
X004760Y008434D03*
X004760Y007984D03*
X003765Y008219D03*
X003470Y007924D03*
X003175Y007629D03*
X003765Y007629D03*
X003175Y008219D03*
X006050Y008734D03*
X009170Y007654D03*
X006410Y007204D03*
X003320Y006634D03*
D36*
X000770Y001144D03*
X000770Y001804D03*
X000770Y002524D03*
X000770Y003184D03*
X000770Y004684D03*
X000770Y005404D03*
X000770Y006904D03*
X000770Y007564D03*
X000770Y008284D03*
X000770Y008944D03*
M02*
